# Blender 3.4.1
# www.blender.org
mtllib Cabinet.mtl
o Cube
v 7.644768 9.238758 -18.340965
v 7.644768 0.051626 -18.340965
v 7.644768 9.149477 0.795170
v 7.644768 0.045010 1.000000
v -1.000000 9.238758 -18.340965
v -1.000000 0.051626 -18.340965
v -1.000000 9.238758 1.000000
v -1.000000 0.051626 1.000000
v -1.992727 9.243912 -18.340965
v -1.992727 9.243912 1.000000
v 7.644768 1.550017 -0.268609
v 8.527394 9.234176 -18.340986
v 8.527394 9.144895 0.795149
v 8.532513 10.220106 -18.338699
v 8.532513 10.130825 0.797436
v -1.987609 10.229842 -18.338678
v -1.987609 10.229842 1.002288
v 7.644768 8.465969 -0.313890
v 7.644768 8.546430 -5.997926
v 7.644768 1.474615 -5.987205
v 7.833093 1.550017 -0.268609
v 7.833093 8.465969 -0.313890
v 7.833093 8.546430 -5.997926
v 7.833093 1.474615 -5.987205
v 7.597919 7.321263 -1.726451
v 7.597919 7.397260 -4.421840
v 7.597919 2.933582 -4.501701
v 7.597919 2.916642 -1.566863
v 7.833093 7.948335 -1.104393
v 7.833093 8.059708 -5.054446
v 7.833093 2.293003 -5.157620
v 7.833093 2.268419 -0.898599
v 7.833093 7.948335 -1.104393
v 7.833093 8.059708 -5.054446
v 7.833093 2.293003 -5.157620
v 7.833093 2.268419 -0.898599
v 7.833093 7.948335 -1.104393
v 7.833093 8.059708 -5.054446
v 7.833093 2.293003 -5.157620
v 7.833093 2.268419 -0.898599
v 7.833093 7.948335 -1.104393
v 7.833093 8.059708 -5.054446
v 7.833093 2.293003 -5.157620
v 7.833093 2.268419 -0.898599
v 7.644768 8.583891 -6.665805
v 7.644768 8.629917 -11.637358
v 7.644768 1.503880 -11.842017
v 7.644768 1.387621 -6.903838
v 7.644768 8.542522 -12.961237
v 7.644768 8.658516 -17.670689
v 7.644768 1.254064 -17.635235
v 7.644768 1.556169 -12.941069
v 7.832227 8.583891 -6.665805
v 7.832227 8.629917 -11.637358
v 7.832227 1.503880 -11.842017
v 7.832227 1.387621 -6.903838
v 7.832227 8.542522 -12.961237
v 7.832227 8.658516 -17.670689
v 7.832227 1.254064 -17.635235
v 7.832227 1.556169 -12.941069
v 7.648715 7.742165 -7.470579
v 7.648715 7.583580 -10.771308
v 7.648715 2.386204 -10.846727
v 7.648715 2.177954 -7.654246
v 7.506269 7.557503 -14.090362
v 7.506269 2.507504 -14.019497
v 7.506269 2.465053 -16.607904
v 7.506269 7.637301 -16.752090
v 7.832227 8.083940 -7.114927
v 7.832227 7.934450 -11.186228
v 7.832227 2.063250 -11.183390
v 7.832227 1.811364 -7.321976
v 7.832227 7.985941 -13.655041
v 7.832227 2.073492 -13.572073
v 7.832227 2.016668 -17.036867
v 7.832227 8.092404 -17.206240
v 7.833092 5.146382 -5.255657
v 7.947598 5.146382 -5.255657
v 7.833093 6.370648 -5.255657
v 7.947599 6.370648 -5.255657
v 7.833092 5.146382 -5.563427
v 7.947598 5.146382 -5.563427
v 7.833093 6.370648 -5.563427
v 7.947599 6.370648 -5.563427
v 7.832226 5.464244 -11.363365
v 7.941482 5.464244 -11.363365
v 7.832227 6.447227 -11.363365
v 7.941482 6.447227 -11.363365
v 7.832226 5.464244 -11.608459
v 7.941482 5.464244 -11.608459
v 7.832227 6.447227 -11.608459
v 7.941482 6.447227 -11.608459
v 7.832226 5.434645 -17.289047
v 7.939247 5.434645 -17.289047
v 7.832226 6.285866 -17.289047
v 7.939247 6.285866 -17.289047
v 7.832226 5.434645 -17.524017
v 7.939247 5.434645 -17.524017
v 7.832226 6.285866 -17.524017
v 7.939247 6.285866 -17.524017
vn -1.0000 0.0052 -0.0000
vn 0.0119 0.0112 0.9999
vn -1.0000 -0.0000 -0.0000
vn -0.0004 -1.0000 -0.0002
vn 1.0000 -0.0000 -0.0000
vn -0.0000 -0.0000 -1.0000
vn -0.0052 -1.0000 -0.0047
vn 1.0000 -0.0052 -0.0000
vn -0.0052 -1.0000 -0.0000
vn -0.0000 0.0023 -1.0000
vn 0.0052 1.0000 0.0023
vn 0.0195 -0.0013 0.9998
vn -0.0000 0.9999 0.0142
vn -0.0000 -0.0015 -1.0000
vn -0.0000 0.0065 1.0000
vn -0.0000 -0.9999 0.0132
vn -0.0000 1.0000 -0.0000
vn 0.9394 -0.3427 -0.0097
vn 0.9394 -0.0061 0.3428
vn 0.9394 0.3428 0.0020
vn 0.9394 -0.0124 -0.3426
vn -0.0000 0.0287 -0.9996
vn -0.0000 -0.9979 0.0642
vn -0.0000 1.0000 0.0093
vn -0.0000 -0.9989 -0.0475
vn -0.0000 -0.0331 0.9995
vn -0.0000 -0.0048 -1.0000
vn -0.0000 0.0029 1.0000
vn -0.0000 0.9997 0.0246
vn -0.0000 -0.9997 -0.0235
vn 0.8841 -0.4668 0.0195
vn 0.8986 -0.0029 0.4387
vn 0.8824 0.4695 0.0306
vn 0.8824 0.0155 -0.4702
vn 0.8044 -0.0083 -0.5941
vn 0.8044 0.5941 -0.0097
vn 0.8044 0.0166 0.5939
vn 0.8044 -0.5939 -0.0178
vn -0.0000 -0.0000 1.0000
vn -0.0000 -1.0000 -0.0000
vt 0.625000 0.500000
vt 0.375000 0.500000
vt 0.625000 0.750000
vt 0.375000 0.750000
vt 0.625000 0.250000
vt 0.125000 0.500000
vt 0.375000 0.250000
vt 0.625000 0.000000
vt 0.625000 1.000000
vt 0.375000 1.000000
vt 0.375000 0.000000
vt 0.125000 0.750000
vt 0.625000 0.250000
vt 0.625000 0.000000
vt 0.625000 1.000000
vt 0.416271 0.733988
vt 0.625000 0.500000
vt 0.625000 0.750000
vt 0.625000 0.500000
vt 0.625000 0.750000
vt 0.625000 0.250000
vt 0.875000 0.500000
vt 0.625000 0.000000
vt 0.875000 0.750000
vt 0.625000 1.000000
vt 0.606115 0.735341
vt 0.607632 0.661140
vt 0.414056 0.659941
vt 0.416271 0.733988
vt 0.606115 0.735341
vt 0.607632 0.661140
vt 0.414056 0.659941
vt 0.574549 0.716608
vt 0.576335 0.681466
vt 0.454067 0.679491
vt 0.453719 0.717527
vt 0.591821 0.724887
vt 0.594411 0.673354
vt 0.436495 0.670853
vt 0.435963 0.726020
vt 0.591821 0.724887
vt 0.594411 0.673354
vt 0.436495 0.670853
vt 0.435963 0.726020
vt 0.591821 0.724887
vt 0.594411 0.673354
vt 0.436495 0.670853
vt 0.435963 0.726020
vt 0.591821 0.724887
vt 0.594411 0.673354
vt 0.436495 0.670853
vt 0.435963 0.726020
vt 0.608571 0.652421
vt 0.609212 0.587494
vt 0.414696 0.584143
vt 0.411635 0.648039
vt 0.606676 0.570210
vt 0.609281 0.508739
vt 0.407752 0.509152
vt 0.416102 0.569929
vt 0.608571 0.652421
vt 0.609212 0.587494
vt 0.414696 0.584143
vt 0.411635 0.648039
vt 0.606676 0.570210
vt 0.609281 0.508739
vt 0.407752 0.509152
vt 0.416102 0.569929
vt 0.585352 0.641760
vt 0.585357 0.596001
vt 0.432008 0.595894
vt 0.432640 0.638344
vt 0.580111 0.555363
vt 0.448341 0.555182
vt 0.441590 0.522372
vt 0.581716 0.520684
vt 0.594843 0.646475
vt 0.595124 0.591503
vt 0.422159 0.591311
vt 0.423213 0.642695
vt 0.591421 0.561121
vt 0.437933 0.560767
vt 0.428534 0.516915
vt 0.593920 0.514789
vt 0.375000 0.000000
vt 0.375000 1.000000
vt 0.125000 0.750000
vt 0.625000 0.000000
vt 0.625000 1.000000
vt 0.875000 0.750000
vt 0.375000 0.250000
vt 0.125000 0.500000
vt 0.625000 0.250000
vt 0.875000 0.500000
vt 0.375000 0.750000
vt 0.625000 0.750000
vt 0.375000 0.500000
vt 0.625000 0.500000
vt 0.375000 0.000000
vt 0.375000 1.000000
vt 0.125000 0.750000
vt 0.625000 0.000000
vt 0.625000 1.000000
vt 0.875000 0.750000
vt 0.375000 0.250000
vt 0.125000 0.500000
vt 0.625000 0.250000
vt 0.875000 0.500000
vt 0.375000 0.750000
vt 0.625000 0.750000
vt 0.375000 0.500000
vt 0.625000 0.500000
vt 0.375000 0.000000
vt 0.375000 1.000000
vt 0.125000 0.750000
vt 0.625000 0.000000
vt 0.625000 1.000000
vt 0.875000 0.750000
vt 0.375000 0.250000
vt 0.125000 0.500000
vt 0.625000 0.250000
vt 0.875000 0.500000
vt 0.375000 0.750000
vt 0.625000 0.750000
vt 0.375000 0.500000
vt 0.625000 0.500000
s 0
usemtl Material
f 9/13/1 10/14/1 17/23/1 16/21/1
f 4/4/2 3/3/2 7/9/2 8/10/2
f 8/11/3 7/8/3 5/5/3 6/7/3
f 6/6/4 2/2/4 4/4/4 8/12/4
f 2/2/5 47/55/5 48/56/5 45/53/5 19/27/5 20/28/5 11/16/5 4/4/5
f 6/7/6 5/5/6 1/1/6 2/2/6
f 4/4/5 11/16/5 18/26/5 19/27/5 45/53/5 1/1/5 3/3/5
f 3/3/7 1/1/7 12/17/7 13/18/7
f 13/18/8 12/17/8 14/19/8 15/20/8
f 5/5/9 7/8/9 10/14/9 9/13/9
f 5/5/10 9/13/10 16/21/10 14/19/10 12/17/10 1/1/10
f 17/24/11 15/20/11 14/19/11 16/22/11
f 17/25/12 10/15/12 7/9/12 3/3/12 13/18/12 15/20/12
f 19/27/13 18/26/13 22/30/13 23/31/13
f 22/30/5 21/29/5 32/40/5 29/37/5 30/38/5 31/39/5 24/32/5 23/31/5
f 20/28/14 19/27/14 23/31/14 24/32/14
f 18/26/15 11/16/15 21/29/15 22/30/15
f 11/16/16 20/28/16 24/32/16 21/29/16
f 24/32/5 31/39/5 32/40/5 21/29/5
f 27/35/5 26/34/5 25/33/5 28/36/5
f 33/41/17 34/42/17 30/38/17 29/37/17
f 34/42/17 35/43/17 31/39/17 30/38/17
f 35/43/17 36/44/17 32/40/17 31/39/17
f 36/44/17 33/41/17 29/37/17 32/40/17
f 37/45/17 38/46/17 34/42/17 33/41/17
f 38/46/17 39/47/17 35/43/17 34/42/17
f 39/47/17 40/48/17 36/44/17 35/43/17
f 40/48/17 37/45/17 33/41/17 36/44/17
f 41/49/17 42/50/17 38/46/17 37/45/17
f 42/50/17 43/51/17 39/47/17 38/46/17
f 43/51/17 44/52/17 40/48/17 39/47/17
f 44/52/17 41/49/17 37/45/17 40/48/17
f 25/33/18 26/34/18 42/50/18 41/49/18
f 26/34/19 27/35/19 43/51/19 42/50/19
f 27/35/20 28/36/20 44/52/20 43/51/20
f 28/36/21 25/33/21 41/49/21 44/52/21
f 45/53/5 46/54/5 47/55/5 52/60/5 49/57/5 50/58/5 1/1/5
f 47/55/22 46/54/22 54/62/22 55/63/22
f 1/1/5 50/58/5 51/59/5 52/60/5 47/55/5 2/2/5
f 52/60/23 51/59/23 59/67/23 60/68/23
f 46/54/24 45/53/24 53/61/24 54/62/24
f 47/55/25 52/60/25 60/68/25 55/63/25
f 45/53/26 48/56/26 56/64/26 53/61/26
f 51/59/27 50/58/27 58/66/27 59/67/27
f 54/62/5 53/61/5 69/77/5 70/78/5
f 59/67/5 58/66/5 76/84/5 75/83/5 74/82/5 60/68/5
f 62/70/5 61/69/5 64/72/5 63/71/5
f 71/79/5 72/80/5 69/77/5 53/61/5 56/64/5 55/63/5 54/62/5 70/78/5
f 60/68/5 74/82/5 73/81/5 76/84/5 58/66/5 57/65/5
f 65/73/5 66/74/5 67/75/5 68/76/5
f 49/57/28 52/60/28 60/68/28 57/65/28
f 50/58/29 49/57/29 57/65/29 58/66/29
f 48/56/30 47/55/30 55/63/30 56/64/30
f 61/69/31 62/70/31 70/78/31 69/77/31
f 62/70/32 63/71/32 71/79/32 70/78/32
f 63/71/33 64/72/33 72/80/33 71/79/33
f 64/72/34 61/69/34 69/77/34 72/80/34
f 66/74/35 65/73/35 73/81/35 74/82/35
f 67/75/36 66/74/36 74/82/36 75/83/36
f 68/76/37 67/75/37 75/83/37 76/84/37
f 65/73/38 68/76/38 76/84/38 73/81/38
f 77/85/39 78/88/39 80/93/39 79/91/39
f 79/91/17 80/93/17 84/98/17 83/97/17
f 83/97/6 84/98/6 82/96/6 81/95/6
f 81/95/40 82/96/40 78/89/40 77/86/40
f 79/92/3 83/97/3 81/95/3 77/87/3
f 84/98/5 80/94/5 78/90/5 82/96/5
f 85/99/39 86/102/39 88/107/39 87/105/39
f 87/105/17 88/107/17 92/112/17 91/111/17
f 91/111/6 92/112/6 90/110/6 89/109/6
f 89/109/40 90/110/40 86/103/40 85/100/40
f 87/106/3 91/111/3 89/109/3 85/101/3
f 92/112/5 88/108/5 86/104/5 90/110/5
f 93/113/39 94/116/39 96/121/39 95/119/39
f 95/119/17 96/121/17 100/126/17 99/125/17
f 99/125/6 100/126/6 98/124/6 97/123/6
f 97/123/40 98/124/40 94/117/40 93/114/40
f 95/120/3 99/125/3 97/123/3 93/115/3
f 100/126/5 96/122/5 94/118/5 98/124/5
