# Blender 3.4.1
# www.blender.org
mtllib Window.mtl
o Cube
v 0.376622 16.298126 -8.088411
v 0.376622 14.903115 -8.088411
v 0.376622 16.298126 5.121703
v 0.376622 14.903115 5.121703
v -1.000000 16.298126 -8.088411
v -1.000000 14.903115 -8.088411
v -1.000000 16.298126 5.121703
v -1.000000 14.903115 5.121703
v -1.000000 14.903115 2.774079
v -1.000000 14.903115 3.921934
v -0.151030 14.903115 3.935359
v -0.137471 14.903115 2.789442
v -1.000000 3.230590 2.774079
v -1.000000 3.230590 3.921934
v -0.151030 3.230590 3.935359
v -0.137471 3.230590 2.789442
v -1.000000 14.903115 -6.704128
v -1.000000 14.903115 -5.476836
v -0.195494 14.903115 -6.692111
v -0.215528 14.903115 -5.453835
v -1.000000 3.245505 -6.704128
v -1.000000 3.245505 -5.476836
v -0.195494 3.245505 -6.692111
v -0.215528 3.245505 -5.453835
v -0.996366 2.464065 4.337398
v -0.996366 3.310137 4.337398
v -0.996366 2.464065 -7.193537
v -0.996366 3.310137 -7.193537
v 0.767817 2.464065 4.337398
v 0.767817 3.310137 4.337398
v 0.767817 2.464065 -7.193537
v 0.767817 3.310137 -7.193537
v -0.996366 2.464065 -5.872593
v -0.996366 2.464065 2.740195
v 0.189497 2.464065 2.790855
v 0.221956 2.464065 -5.832726
v -0.996366 1.720843 -5.872593
v -0.996366 1.720843 2.740195
v 0.189497 1.720843 2.790855
v 0.221956 1.720843 -5.832726
vn -0.0000 1.0000 -0.0000
vn -0.0000 -0.0000 1.0000
vn -1.0000 -0.0000 -0.0000
vn -0.0000 -1.0000 -0.0000
vn 1.0000 -0.0000 -0.0000
vn -0.0000 -0.0000 -1.0000
vn 0.9999 -0.0000 0.0118
vn 0.0178 -0.0000 -0.9998
vn -0.0158 -0.0000 0.9999
vn -0.0293 -0.0000 0.9996
vn 0.0149 -0.0000 -0.9999
vn 0.9999 -0.0000 0.0162
vn 0.0327 -0.0000 -0.9995
vn 1.0000 -0.0000 0.0038
vn -0.0427 -0.0000 0.9991
vt 0.625000 0.500000
vt 0.375000 0.500000
vt 0.625000 0.750000
vt 0.375000 0.750000
vt 0.875000 0.500000
vt 0.625000 0.250000
vt 0.125000 0.500000
vt 0.375000 0.250000
vt 0.875000 0.750000
vt 0.625000 1.000000
vt 0.625000 0.000000
vt 0.375000 1.000000
vt 0.375000 0.000000
vt 0.125000 0.750000
vt 0.375000 0.028214
vt 0.125000 0.721786
vt 0.375000 0.008606
vt 0.125000 0.741394
vt 0.328928 0.741624
vt 0.332185 0.722049
vt 0.375000 0.028214
vt 0.125000 0.721786
vt 0.375000 0.008606
vt 0.125000 0.741394
vt 0.328928 0.741624
vt 0.332185 0.722049
vt 0.125000 0.514793
vt 0.375000 0.235207
vt 0.125000 0.541596
vt 0.375000 0.208404
vt 0.318248 0.514718
vt 0.313435 0.541139
vt 0.125000 0.514793
vt 0.375000 0.235207
vt 0.125000 0.541596
vt 0.375000 0.208404
vt 0.318248 0.514718
vt 0.313435 0.541139
vt 0.375000 0.000000
vt 0.375000 1.000000
vt 0.125000 0.750000
vt 0.625000 0.000000
vt 0.625000 1.000000
vt 0.875000 0.750000
vt 0.375000 0.250000
vt 0.125000 0.500000
vt 0.625000 0.250000
vt 0.875000 0.500000
vt 0.375000 0.750000
vt 0.625000 0.750000
vt 0.375000 0.500000
vt 0.625000 0.500000
vt 0.375000 0.221361
vt 0.125000 0.528639
vt 0.375000 0.034629
vt 0.125000 0.715371
vt 0.293047 0.716470
vt 0.297647 0.529503
vt 0.375000 0.221361
vt 0.125000 0.528639
vt 0.375000 0.034629
vt 0.125000 0.715371
vt 0.293047 0.716470
vt 0.297647 0.529503
s 0
usemtl Material
f 1/1/1 5/5/1 7/9/1 3/3/1
f 4/4/2 3/3/2 7/10/2 8/12/2
f 8/13/3 7/11/3 5/6/3 6/8/3 17/28/3 18/30/3 9/15/3 10/17/3
f 6/7/4 2/2/4 4/4/4 8/14/4 10/18/4 11/19/4 12/20/4 9/16/4 18/29/4 20/32/4 19/31/4 17/27/4
f 2/2/5 1/1/5 3/3/5 4/4/5
f 6/8/6 5/6/6 1/1/6 2/2/6
f 12/20/7 11/19/7 15/25/7 16/26/7
f 13/22/4 16/26/4 15/25/4 14/24/4
f 10/17/3 9/15/3 13/21/3 14/23/3
f 9/16/8 12/20/8 16/26/8 13/22/8
f 11/19/9 10/18/9 14/24/9 15/25/9
f 21/33/4 23/37/4 24/38/4 22/35/4
f 20/32/10 18/29/10 22/35/10 24/38/10
f 17/27/11 19/31/11 23/37/11 21/33/11
f 19/31/12 20/32/12 24/38/12 23/37/12
f 18/30/3 17/28/3 21/34/3 22/36/3
f 25/39/3 26/42/3 28/47/3 27/45/3 33/53/3 34/55/3
f 27/45/6 28/47/6 32/52/6 31/51/6
f 31/51/5 32/52/5 30/50/5 29/49/5
f 29/49/2 30/50/2 26/43/2 25/40/2
f 27/46/4 31/51/4 29/49/4 25/41/4 34/56/4 35/57/4 36/58/4 33/54/4
f 32/52/1 28/48/1 26/44/1 30/50/1
f 37/60/4 40/64/4 39/63/4
f 34/55/3 33/53/3 37/59/3 38/61/3
f 33/54/13 36/58/13 40/64/13 37/60/13
f 37/60/4 39/63/4 38/62/4
f 36/58/14 35/57/14 39/63/14 40/64/14
f 35/57/15 34/56/15 38/62/15 39/63/15
o Cube.001
v -0.862310 13.821421 2.775853
v -0.862310 14.893227 1.436534
v -0.862310 13.020095 2.774602
v -0.862310 14.893227 0.573712
v -0.291267 13.821421 2.775853
v -0.291267 14.893227 1.436534
v -0.291267 13.020095 2.774602
v -0.291267 14.893227 0.573712
vn -1.0000 -0.0000 -0.0000
vn -0.0000 -0.7615 -0.6481
vn 1.0000 -0.0000 -0.0000
vn -0.0000 0.7808 0.6248
vn -0.0000 -0.0016 1.0000
vn -0.0000 1.0000 -0.0000
vt 0.375000 0.000000
vt 0.375000 1.000000
vt 0.125000 0.750000
vt 0.625000 0.000000
vt 0.625000 1.000000
vt 0.875000 0.750000
vt 0.375000 0.250000
vt 0.125000 0.500000
vt 0.625000 0.250000
vt 0.875000 0.500000
vt 0.375000 0.750000
vt 0.625000 0.750000
vt 0.375000 0.500000
vt 0.625000 0.500000
s 0
usemtl Material.004
f 41/65/16 42/68/16 44/73/16 43/71/16
f 43/71/17 44/73/17 48/78/17 47/77/17
f 47/77/18 48/78/18 46/76/18 45/75/18
f 45/75/19 46/76/19 42/69/19 41/66/19
f 43/72/20 47/77/20 45/75/20 41/67/20
f 48/78/21 44/74/21 42/70/21 46/76/21
o Cube.002
v -0.322304 13.821421 -5.492456
v -0.287449 14.893227 -4.153590
v -0.322271 13.020095 -5.491205
v -0.264995 14.893227 -3.291060
v -0.893154 13.821421 -5.477595
v -0.858299 14.893227 -4.138729
v -0.893121 13.020095 -5.476345
v -0.835845 14.893227 -3.276200
vn 0.9997 -0.0000 -0.0260
vn 0.0169 -0.7615 0.6479
vn -0.9997 -0.0000 0.0260
vn -0.0163 0.7808 -0.6246
vn -0.0260 -0.0016 -0.9997
vn -0.0000 1.0000 -0.0000
vt 0.375000 0.000000
vt 0.375000 1.000000
vt 0.125000 0.750000
vt 0.625000 0.000000
vt 0.625000 1.000000
vt 0.875000 0.750000
vt 0.375000 0.250000
vt 0.125000 0.500000
vt 0.625000 0.250000
vt 0.875000 0.500000
vt 0.375000 0.750000
vt 0.625000 0.750000
vt 0.375000 0.500000
vt 0.625000 0.500000
s 0
usemtl Material.003
f 49/79/22 50/82/22 52/87/22 51/85/22
f 51/85/23 52/87/23 56/92/23 55/91/23
f 55/91/24 56/92/24 54/90/24 53/89/24
f 53/89/25 54/90/25 50/83/25 49/80/25
f 51/86/26 55/91/26 53/89/26 49/81/26
f 56/92/27 52/88/27 50/84/27 54/90/27
o Cylinder
v -0.668014 3.209750 -1.473768
v -0.668014 15.160041 -1.473768
v -0.620439 3.209750 -1.469335
v -0.620439 15.160041 -1.469335
v -0.574693 3.209750 -1.456206
v -0.574693 15.160041 -1.456206
v -0.532533 3.209750 -1.434885
v -0.532533 15.160041 -1.434885
v -0.495580 3.209750 -1.406193
v -0.495580 15.160041 -1.406193
v -0.465253 3.209750 -1.371231
v -0.465253 15.160041 -1.371231
v -0.442718 3.209750 -1.331343
v -0.442718 15.160041 -1.331343
v -0.428841 3.209750 -1.288062
v -0.428841 15.160041 -1.288062
v -0.424155 3.209750 -1.243052
v -0.424155 15.160041 -1.243052
v -0.428841 3.209750 -1.198041
v -0.428841 15.160041 -1.198041
v -0.442718 3.209750 -1.154761
v -0.442718 15.160041 -1.154761
v -0.465253 3.209750 -1.114873
v -0.465253 15.160041 -1.114873
v -0.495580 3.209750 -1.079911
v -0.495580 15.160041 -1.079911
v -0.532533 3.209750 -1.051219
v -0.532533 15.160041 -1.051219
v -0.574693 3.209750 -1.029898
v -0.574693 15.160041 -1.029898
v -0.620439 3.209750 -1.016769
v -0.620439 15.160041 -1.016769
v -0.668014 3.209750 -1.012336
v -0.668014 15.160041 -1.012336
v -0.715588 3.209750 -1.016769
v -0.715588 15.160041 -1.016769
v -0.761334 3.209750 -1.029898
v -0.761334 15.160041 -1.029898
v -0.803494 3.209750 -1.051219
v -0.803494 15.160041 -1.051219
v -0.840448 3.209750 -1.079911
v -0.840448 15.160041 -1.079911
v -0.870775 3.209750 -1.114873
v -0.870775 15.160041 -1.114873
v -0.893310 3.209750 -1.154761
v -0.893310 15.160041 -1.154761
v -0.907187 3.209750 -1.198041
v -0.907187 15.160041 -1.198041
v -0.911873 3.209750 -1.243052
v -0.911873 15.160041 -1.243052
v -0.907187 3.209750 -1.288062
v -0.907187 15.160041 -1.288062
v -0.893310 3.209750 -1.331343
v -0.893310 15.160041 -1.331343
v -0.870775 3.209750 -1.371231
v -0.870775 15.160041 -1.371231
v -0.840448 3.209750 -1.406193
v -0.840448 15.160041 -1.406193
v -0.803494 3.209750 -1.434885
v -0.803494 15.160041 -1.434885
v -0.761334 3.209750 -1.456206
v -0.761334 15.160041 -1.456206
v -0.715588 3.209750 -1.469335
v -0.715588 15.160041 -1.469335
vn 0.0928 -0.0000 -0.9957
vn 0.2759 -0.0000 -0.9612
vn 0.4513 -0.0000 -0.8924
vn 0.6133 -0.0000 -0.7899
vn 0.7554 -0.0000 -0.6553
vn 0.8707 -0.0000 -0.4919
vn 0.9522 -0.0000 -0.3053
vn 0.9946 -0.0000 -0.1035
vn 0.9946 -0.0000 0.1035
vn 0.9522 -0.0000 0.3053
vn 0.8707 -0.0000 0.4919
vn 0.7554 -0.0000 0.6553
vn 0.6133 -0.0000 0.7899
vn 0.4513 -0.0000 0.8924
vn 0.2759 -0.0000 0.9612
vn 0.0928 -0.0000 0.9957
vn -0.0928 -0.0000 0.9957
vn -0.2759 -0.0000 0.9612
vn -0.4513 -0.0000 0.8924
vn -0.6133 -0.0000 0.7899
vn -0.7554 -0.0000 0.6553
vn -0.8707 -0.0000 0.4919
vn -0.9523 -0.0000 0.3053
vn -0.9946 -0.0000 0.1035
vn -0.9946 -0.0000 -0.1035
vn -0.9523 -0.0000 -0.3053
vn -0.8707 -0.0000 -0.4919
vn -0.7554 -0.0000 -0.6553
vn -0.6133 -0.0000 -0.7899
vn -0.4513 -0.0000 -0.8924
vn -0.0000 1.0000 -0.0000
vn -0.2759 -0.0000 -0.9612
vn -0.0928 -0.0000 -0.9957
vn -0.0000 -1.0000 -0.0000
vt 1.000000 0.500000
vt 0.000000 0.500000
vt 0.750000 0.490000
vt 1.000000 1.000000
vt 0.250000 0.490000
vt 0.000000 1.000000
vt 0.968750 0.500000
vt 0.796822 0.485388
vt 0.968750 1.000000
vt 0.296822 0.485388
vt 0.937500 0.500000
vt 0.841844 0.471731
vt 0.937500 1.000000
vt 0.341844 0.471731
vt 0.906250 0.500000
vt 0.883337 0.449553
vt 0.906250 1.000000
vt 0.383337 0.449553
vt 0.875000 0.500000
vt 0.919706 0.419706
vt 0.875000 1.000000
vt 0.419706 0.419706
vt 0.843750 0.500000
vt 0.949553 0.383337
vt 0.843750 1.000000
vt 0.449553 0.383337
vt 0.812500 0.500000
vt 0.971731 0.341844
vt 0.812500 1.000000
vt 0.471731 0.341844
vt 0.781250 0.500000
vt 0.985388 0.296822
vt 0.781250 1.000000
vt 0.485388 0.296822
vt 0.750000 0.500000
vt 0.990000 0.250000
vt 0.750000 1.000000
vt 0.490000 0.250000
vt 0.718750 0.500000
vt 0.985388 0.203178
vt 0.718750 1.000000
vt 0.485388 0.203178
vt 0.687500 0.500000
vt 0.971731 0.158156
vt 0.687500 1.000000
vt 0.471731 0.158156
vt 0.656250 0.500000
vt 0.949553 0.116663
vt 0.656250 1.000000
vt 0.449553 0.116663
vt 0.625000 0.500000
vt 0.919706 0.080294
vt 0.625000 1.000000
vt 0.419706 0.080294
vt 0.593750 0.500000
vt 0.883337 0.050447
vt 0.593750 1.000000
vt 0.383337 0.050447
vt 0.562500 0.500000
vt 0.841844 0.028269
vt 0.562500 1.000000
vt 0.341844 0.028269
vt 0.531250 0.500000
vt 0.796822 0.014612
vt 0.531250 1.000000
vt 0.296822 0.014612
vt 0.500000 0.500000
vt 0.750000 0.010000
vt 0.500000 1.000000
vt 0.250000 0.010000
vt 0.468750 0.500000
vt 0.703178 0.014612
vt 0.468750 1.000000
vt 0.203178 0.014612
vt 0.437500 0.500000
vt 0.658156 0.028269
vt 0.437500 1.000000
vt 0.158156 0.028269
vt 0.406250 0.500000
vt 0.616663 0.050447
vt 0.406250 1.000000
vt 0.116663 0.050447
vt 0.375000 0.500000
vt 0.580294 0.080294
vt 0.375000 1.000000
vt 0.080294 0.080294
vt 0.343750 0.500000
vt 0.550447 0.116663
vt 0.343750 1.000000
vt 0.050447 0.116663
vt 0.312500 0.500000
vt 0.528269 0.158156
vt 0.312500 1.000000
vt 0.028269 0.158156
vt 0.281250 0.500000
vt 0.514612 0.203178
vt 0.281250 1.000000
vt 0.014612 0.203178
vt 0.250000 0.500000
vt 0.510000 0.250000
vt 0.250000 1.000000
vt 0.010000 0.250000
vt 0.218750 0.500000
vt 0.514612 0.296822
vt 0.218750 1.000000
vt 0.014612 0.296822
vt 0.187500 0.500000
vt 0.528269 0.341844
vt 0.187500 1.000000
vt 0.028269 0.341844
vt 0.156250 0.500000
vt 0.550447 0.383337
vt 0.156250 1.000000
vt 0.050447 0.383337
vt 0.125000 0.500000
vt 0.580294 0.419706
vt 0.125000 1.000000
vt 0.080294 0.419706
vt 0.093750 0.500000
vt 0.616663 0.449553
vt 0.093750 1.000000
vt 0.116663 0.449553
vt 0.062500 0.500000
vt 0.658156 0.471731
vt 0.158156 0.471731
vt 0.062500 1.000000
vt 0.031250 0.500000
vt 0.703178 0.485388
vt 0.203178 0.485388
vt 0.031250 1.000000
s 0
usemtl Material.001
f 57/93/28 58/96/28 60/101/28 59/99/28
f 59/99/29 60/101/29 62/105/29 61/103/29
f 61/103/30 62/105/30 64/109/30 63/107/30
f 63/107/31 64/109/31 66/113/31 65/111/31
f 65/111/32 66/113/32 68/117/32 67/115/32
f 67/115/33 68/117/33 70/121/33 69/119/33
f 69/119/34 70/121/34 72/125/34 71/123/34
f 71/123/35 72/125/35 74/129/35 73/127/35
f 73/127/36 74/129/36 76/133/36 75/131/36
f 75/131/37 76/133/37 78/137/37 77/135/37
f 77/135/38 78/137/38 80/141/38 79/139/38
f 79/139/39 80/141/39 82/145/39 81/143/39
f 81/143/40 82/145/40 84/149/40 83/147/40
f 83/147/41 84/149/41 86/153/41 85/151/41
f 85/151/42 86/153/42 88/157/42 87/155/42
f 87/155/43 88/157/43 90/161/43 89/159/43
f 89/159/44 90/161/44 92/165/44 91/163/44
f 91/163/45 92/165/45 94/169/45 93/167/45
f 93/167/46 94/169/46 96/173/46 95/171/46
f 95/171/47 96/173/47 98/177/47 97/175/47
f 97/175/48 98/177/48 100/181/48 99/179/48
f 99/179/49 100/181/49 102/185/49 101/183/49
f 101/183/50 102/185/50 104/189/50 103/187/50
f 103/187/51 104/189/51 106/193/51 105/191/51
f 105/191/52 106/193/52 108/197/52 107/195/52
f 107/195/53 108/197/53 110/201/53 109/199/53
f 109/199/54 110/201/54 112/205/54 111/203/54
f 111/203/55 112/205/55 114/209/55 113/207/55
f 113/207/56 114/209/56 116/213/56 115/211/56
f 115/211/57 116/213/57 118/218/57 117/215/57
f 60/102/58 58/97/58 120/221/58 118/217/58 116/214/58 114/210/58 112/206/58 110/202/58 108/198/58 106/194/58 104/190/58 102/186/58 100/182/58 98/178/58 96/174/58 94/170/58 92/166/58 90/162/58 88/158/58 86/154/58 84/150/58 82/146/58 80/142/58 78/138/58 76/134/58 74/130/58 72/126/58 70/122/58 68/118/58 66/114/58 64/110/58 62/106/58
f 117/215/59 118/218/59 120/222/59 119/219/59
f 119/219/60 120/222/60 58/98/60 57/94/60
f 57/95/61 59/100/61 61/104/61 63/108/61 65/112/61 67/116/61 69/120/61 71/124/61 73/128/61 75/132/61 77/136/61 79/140/61 81/144/61 83/148/61 85/152/61 87/156/61 89/160/61 91/164/61 93/168/61 95/172/61 97/176/61 99/180/61 101/184/61 103/188/61 105/192/61 107/196/61 109/200/61 111/204/61 113/208/61 115/212/61 117/216/61 119/220/61
o Cylinder.001
v -0.668014 9.152160 2.921220
v -0.668014 9.147532 -5.637351
v -0.620439 9.156592 2.921217
v -0.620439 9.151964 -5.637352
v -0.574693 9.169722 2.921210
v -0.574693 9.165093 -5.637360
v -0.532533 9.191042 2.921199
v -0.532533 9.186414 -5.637372
v -0.495580 9.219735 2.921183
v -0.495580 9.215107 -5.637387
v -0.465253 9.254697 2.921164
v -0.465253 9.250069 -5.637406
v -0.442718 9.294584 2.921143
v -0.442718 9.289956 -5.637427
v -0.428841 9.337865 2.921119
v -0.428841 9.333237 -5.637451
v -0.424155 9.382875 2.921095
v -0.424155 9.378247 -5.637475
v -0.428841 9.427886 2.921071
v -0.428841 9.423258 -5.637499
v -0.442718 9.471167 2.921047
v -0.442718 9.466538 -5.637523
v -0.465253 9.511055 2.921026
v -0.465253 9.506426 -5.637544
v -0.495580 9.546017 2.921007
v -0.495580 9.541389 -5.637563
v -0.532533 9.574709 2.920991
v -0.532533 9.570081 -5.637578
v -0.574693 9.596029 2.920980
v -0.574693 9.591401 -5.637590
v -0.620439 9.609159 2.920973
v -0.620439 9.604530 -5.637598
v -0.668014 9.613592 2.920970
v -0.668014 9.608963 -5.637599
v -0.715588 9.609159 2.920973
v -0.715588 9.604530 -5.637598
v -0.761334 9.596029 2.920980
v -0.761334 9.591401 -5.637590
v -0.803494 9.574709 2.920991
v -0.803494 9.570081 -5.637578
v -0.840448 9.546017 2.921007
v -0.840448 9.541389 -5.637563
v -0.870775 9.511055 2.921026
v -0.870775 9.506426 -5.637544
v -0.893310 9.471167 2.921047
v -0.893310 9.466538 -5.637523
v -0.907187 9.427886 2.921071
v -0.907187 9.423258 -5.637499
v -0.911873 9.382875 2.921095
v -0.911873 9.378247 -5.637475
v -0.907187 9.337865 2.921119
v -0.907187 9.333237 -5.637451
v -0.893310 9.294584 2.921143
v -0.893310 9.289956 -5.637427
v -0.870775 9.254697 2.921164
v -0.870775 9.250069 -5.637406
v -0.840448 9.219735 2.921183
v -0.840448 9.215107 -5.637387
v -0.803494 9.191042 2.921199
v -0.803494 9.186414 -5.637372
v -0.761334 9.169722 2.921210
v -0.761334 9.165093 -5.637360
v -0.715588 9.156592 2.921217
v -0.715588 9.151964 -5.637352
vn 0.0928 -0.9957 0.0005
vn 0.2759 -0.9612 0.0005
vn 0.4513 -0.8924 0.0005
vn 0.6133 -0.7899 0.0004
vn 0.7554 -0.6553 0.0004
vn 0.8707 -0.4919 0.0003
vn 0.9522 -0.3053 0.0002
vn 0.9946 -0.1035 0.0001
vn 0.9946 0.1035 -0.0001
vn 0.9522 0.3053 -0.0002
vn 0.8707 0.4919 -0.0003
vn 0.7554 0.6553 -0.0004
vn 0.6133 0.7899 -0.0004
vn 0.4513 0.8924 -0.0005
vn 0.2759 0.9612 -0.0005
vn 0.0928 0.9957 -0.0005
vn -0.0928 0.9957 -0.0005
vn -0.2759 0.9612 -0.0005
vn -0.4513 0.8924 -0.0005
vn -0.6133 0.7899 -0.0004
vn -0.7554 0.6553 -0.0004
vn -0.8707 0.4919 -0.0003
vn -0.9523 0.3053 -0.0002
vn -0.9946 0.1035 -0.0001
vn -0.9946 -0.1035 0.0001
vn -0.9523 -0.3053 0.0002
vn -0.8707 -0.4919 0.0003
vn -0.7554 -0.6553 0.0004
vn -0.6133 -0.7899 0.0004
vn -0.4513 -0.8924 0.0005
vn -0.0000 -0.0005 -1.0000
vn -0.2759 -0.9612 0.0005
vn -0.0928 -0.9957 0.0005
vn -0.0000 0.0005 1.0000
vt 1.000000 0.500000
vt 0.000000 0.500000
vt 0.750000 0.490000
vt 1.000000 1.000000
vt 0.250000 0.490000
vt 0.000000 1.000000
vt 0.968750 0.500000
vt 0.796822 0.485388
vt 0.968750 1.000000
vt 0.296822 0.485388
vt 0.937500 0.500000
vt 0.841844 0.471731
vt 0.937500 1.000000
vt 0.341844 0.471731
vt 0.906250 0.500000
vt 0.883337 0.449553
vt 0.906250 1.000000
vt 0.383337 0.449553
vt 0.875000 0.500000
vt 0.919706 0.419706
vt 0.875000 1.000000
vt 0.419706 0.419706
vt 0.843750 0.500000
vt 0.949553 0.383337
vt 0.843750 1.000000
vt 0.449553 0.383337
vt 0.812500 0.500000
vt 0.971731 0.341844
vt 0.812500 1.000000
vt 0.471731 0.341844
vt 0.781250 0.500000
vt 0.985388 0.296822
vt 0.781250 1.000000
vt 0.485388 0.296822
vt 0.750000 0.500000
vt 0.990000 0.250000
vt 0.750000 1.000000
vt 0.490000 0.250000
vt 0.718750 0.500000
vt 0.985388 0.203178
vt 0.718750 1.000000
vt 0.485388 0.203178
vt 0.687500 0.500000
vt 0.971731 0.158156
vt 0.687500 1.000000
vt 0.471731 0.158156
vt 0.656250 0.500000
vt 0.949553 0.116663
vt 0.656250 1.000000
vt 0.449553 0.116663
vt 0.625000 0.500000
vt 0.919706 0.080294
vt 0.625000 1.000000
vt 0.419706 0.080294
vt 0.593750 0.500000
vt 0.883337 0.050447
vt 0.593750 1.000000
vt 0.383337 0.050447
vt 0.562500 0.500000
vt 0.841844 0.028269
vt 0.562500 1.000000
vt 0.341844 0.028269
vt 0.531250 0.500000
vt 0.796822 0.014612
vt 0.531250 1.000000
vt 0.296822 0.014612
vt 0.500000 0.500000
vt 0.750000 0.010000
vt 0.500000 1.000000
vt 0.250000 0.010000
vt 0.468750 0.500000
vt 0.703178 0.014612
vt 0.468750 1.000000
vt 0.203178 0.014612
vt 0.437500 0.500000
vt 0.658156 0.028269
vt 0.437500 1.000000
vt 0.158156 0.028269
vt 0.406250 0.500000
vt 0.616663 0.050447
vt 0.406250 1.000000
vt 0.116663 0.050447
vt 0.375000 0.500000
vt 0.580294 0.080294
vt 0.375000 1.000000
vt 0.080294 0.080294
vt 0.343750 0.500000
vt 0.550447 0.116663
vt 0.343750 1.000000
vt 0.050447 0.116663
vt 0.312500 0.500000
vt 0.528269 0.158156
vt 0.312500 1.000000
vt 0.028269 0.158156
vt 0.281250 0.500000
vt 0.514612 0.203178
vt 0.281250 1.000000
vt 0.014612 0.203178
vt 0.250000 0.500000
vt 0.510000 0.250000
vt 0.250000 1.000000
vt 0.010000 0.250000
vt 0.218750 0.500000
vt 0.514612 0.296822
vt 0.218750 1.000000
vt 0.014612 0.296822
vt 0.187500 0.500000
vt 0.528269 0.341844
vt 0.187500 1.000000
vt 0.028269 0.341844
vt 0.156250 0.500000
vt 0.550447 0.383337
vt 0.156250 1.000000
vt 0.050447 0.383337
vt 0.125000 0.500000
vt 0.580294 0.419706
vt 0.125000 1.000000
vt 0.080294 0.419706
vt 0.093750 0.500000
vt 0.616663 0.449553
vt 0.093750 1.000000
vt 0.116663 0.449553
vt 0.062500 0.500000
vt 0.658156 0.471731
vt 0.158156 0.471731
vt 0.062500 1.000000
vt 0.031250 0.500000
vt 0.703178 0.485388
vt 0.203178 0.485388
vt 0.031250 1.000000
s 0
usemtl Material.002
f 121/223/62 122/226/62 124/231/62 123/229/62
f 123/229/63 124/231/63 126/235/63 125/233/63
f 125/233/64 126/235/64 128/239/64 127/237/64
f 127/237/65 128/239/65 130/243/65 129/241/65
f 129/241/66 130/243/66 132/247/66 131/245/66
f 131/245/67 132/247/67 134/251/67 133/249/67
f 133/249/68 134/251/68 136/255/68 135/253/68
f 135/253/69 136/255/69 138/259/69 137/257/69
f 137/257/70 138/259/70 140/263/70 139/261/70
f 139/261/71 140/263/71 142/267/71 141/265/71
f 141/265/72 142/267/72 144/271/72 143/269/72
f 143/269/73 144/271/73 146/275/73 145/273/73
f 145/273/74 146/275/74 148/279/74 147/277/74
f 147/277/75 148/279/75 150/283/75 149/281/75
f 149/281/76 150/283/76 152/287/76 151/285/76
f 151/285/77 152/287/77 154/291/77 153/289/77
f 153/289/78 154/291/78 156/295/78 155/293/78
f 155/293/79 156/295/79 158/299/79 157/297/79
f 157/297/80 158/299/80 160/303/80 159/301/80
f 159/301/81 160/303/81 162/307/81 161/305/81
f 161/305/82 162/307/82 164/311/82 163/309/82
f 163/309/83 164/311/83 166/315/83 165/313/83
f 165/313/84 166/315/84 168/319/84 167/317/84
f 167/317/85 168/319/85 170/323/85 169/321/85
f 169/321/86 170/323/86 172/327/86 171/325/86
f 171/325/87 172/327/87 174/331/87 173/329/87
f 173/329/88 174/331/88 176/335/88 175/333/88
f 175/333/89 176/335/89 178/339/89 177/337/89
f 177/337/90 178/339/90 180/343/90 179/341/90
f 179/341/91 180/343/91 182/348/91 181/345/91
f 124/232/92 122/227/92 184/351/92 182/347/92 180/344/92 178/340/92 176/336/92 174/332/92 172/328/92 170/324/92 168/320/92 166/316/92 164/312/92 162/308/92 160/304/92 158/300/92 156/296/92 154/292/92 152/288/92 150/284/92 148/280/92 146/276/92 144/272/92 142/268/92 140/264/92 138/260/92 136/256/92 134/252/92 132/248/92 130/244/92 128/240/92 126/236/92
f 181/345/93 182/348/93 184/352/93 183/349/93
f 183/349/94 184/352/94 122/228/94 121/224/94
f 121/225/95 123/230/95 125/234/95 127/238/95 129/242/95 131/246/95 133/250/95 135/254/95 137/258/95 139/262/95 141/266/95 143/270/95 145/274/95 147/278/95 149/282/95 151/286/95 153/290/95 155/294/95 157/298/95 159/302/95 161/306/95 163/310/95 165/314/95 167/318/95 169/322/95 171/326/95 173/330/95 175/334/95 177/338/95 179/342/95 181/346/95 183/350/95
