# Blender 3.4.1
# www.blender.org
mtllib carit.mtl
o Cone
v 0.000000 1.610935 -0.993571
v -0.000000 1.456056 0.994590
v 0.085904 1.574449 -0.993791
v 0.005412 1.453907 0.994571
v 0.131612 1.482064 -0.994346
v 0.008292 1.448468 0.994523
v 0.115738 1.377008 -0.994978
v 0.007292 1.442283 0.994469
v 0.045708 1.308438 -0.995390
v 0.002880 1.438245 0.994433
v -0.045708 1.308438 -0.995390
v -0.002880 1.438245 0.994433
v -0.115738 1.377008 -0.994978
v -0.007292 1.442283 0.994469
v -0.131612 1.482064 -0.994346
v -0.008292 1.448468 0.994523
v -0.085904 1.574449 -0.993791
v -0.005412 1.453907 0.994571
vn -0.0000 0.8025 -0.5967
vn -0.0000 0.7441 0.6681
vn 0.5145 0.5399 0.6662
vn 0.5414 0.5810 -0.6077
vn 0.7393 0.1103 0.6643
vn 0.7737 0.1250 -0.6211
vn 0.6661 -0.3458 0.6608
vn 0.6992 -0.3569 -0.6194
vn 0.2829 -0.6974 0.6585
vn 0.2995 -0.7357 -0.6074
vn -0.2829 -0.6974 0.6585
vn -0.2995 -0.7357 -0.6074
vn -0.6661 -0.3458 0.6608
vn -0.6992 -0.3569 -0.6194
vn -0.7393 0.1103 0.6643
vn -0.7737 0.1250 -0.6211
vn -0.5145 0.5399 0.6662
vn -0.5414 0.5810 -0.6077
vt 1.000000 0.500000
vt 0.000000 0.500000
vt 0.750000 0.490000
vt 1.000000 1.000000
vt 0.250000 0.490000
vt 0.000000 1.000000
vt 0.888889 0.500000
vt 0.904269 0.433851
vt 0.888889 1.000000
vt 0.404269 0.433851
vt 0.777778 0.500000
vt 0.986354 0.291676
vt 0.777778 1.000000
vt 0.486354 0.291676
vt 0.666667 0.500000
vt 0.957846 0.130000
vt 0.666667 1.000000
vt 0.457846 0.130000
vt 0.555556 0.500000
vt 0.832085 0.024474
vt 0.555556 1.000000
vt 0.332085 0.024474
vt 0.444444 0.500000
vt 0.667915 0.024474
vt 0.444444 1.000000
vt 0.167915 0.024474
vt 0.333333 0.500000
vt 0.542154 0.130000
vt 0.333333 1.000000
vt 0.042154 0.130000
vt 0.222222 0.500000
vt 0.513646 0.291676
vt 0.013646 0.291676
vt 0.222222 1.000000
vt 0.111111 0.500000
vt 0.595731 0.433851
vt 0.095731 0.433851
vt 0.111111 1.000000
s 1
usemtl Material.001
f 1/1/1 2/4/2 4/9/3 3/7/4
f 3/7/4 4/9/3 6/13/5 5/11/6
f 5/11/6 6/13/5 8/17/7 7/15/8
f 7/15/8 8/17/7 10/21/9 9/19/10
f 9/19/10 10/21/9 12/25/11 11/23/12
f 11/23/12 12/25/11 14/29/13 13/27/14
f 13/27/14 14/29/13 16/34/15 15/31/16
f 4/10/3 2/5/2 18/37/17 16/33/15 14/30/13 12/26/11 10/22/9 8/18/7 6/14/5
f 15/31/16 16/34/15 18/38/17 17/35/18
f 17/35/18 18/38/17 2/6/2 1/2/1
f 1/3/1 3/8/4 5/12/6 7/16/8 9/20/10 11/24/12 13/28/14 15/32/16 17/36/18
o Cube
v -0.042988 1.405489 -0.937859
v -0.042988 1.508664 -0.937859
v -0.054729 1.391399 -1.195475
v -0.054729 1.518057 -1.195475
v 0.042988 1.405489 -0.937859
v 0.050815 1.518057 -0.937711
v 0.050815 1.391399 -1.195475
v 0.050124 1.516570 -1.194004
vn -0.9990 -0.0000 0.0455
vn 0.0070 0.0059 -1.0000
vn 0.9994 -0.0301 0.0148
vn -0.0008 -0.0007 1.0000
vn -0.0000 -0.9985 0.0546
vn -0.0399 0.9991 0.0163
vt 0.375000 0.000000
vt 0.375000 1.000000
vt 0.125000 0.750000
vt 0.625000 0.000000
vt 0.625000 1.000000
vt 0.875000 0.750000
vt 0.375000 0.250000
vt 0.125000 0.500000
vt 0.625000 0.250000
vt 0.875000 0.500000
vt 0.375000 0.750000
vt 0.625000 0.750000
vt 0.375000 0.500000
vt 0.625000 0.500000
s 0
usemtl Material.002
f 19/39/19 20/42/19 22/47/19 21/45/19
f 21/45/20 22/47/20 26/52/20 25/51/20
f 25/51/21 26/52/21 24/50/21 23/49/21
f 23/49/22 24/50/22 20/43/22 19/40/22
f 21/46/23 25/51/23 23/49/23 19/41/23
f 26/52/24 22/48/24 20/44/24 24/50/24
o Sphere
v 0.042815 1.580968 -0.989066
v 0.078381 1.535621 -1.009821
v 0.115451 1.464234 -1.060791
v 0.115451 1.378101 -1.060791
v 0.092076 1.334249 -1.037307
v 0.035754 1.317132 -0.994989
v 0.071712 1.570997 -0.942219
v 0.080508 1.541837 -0.942219
v 0.113607 1.464234 -0.942219
v 0.092822 1.378101 -0.942219
v 0.063257 1.348728 -0.942219
v 0.055710 1.335601 -0.942219
v 0.039184 1.571777 -0.889449
v 0.080128 1.541837 -0.847130
v 0.087933 1.471864 -0.823646
v 0.087933 1.407089 -0.823646
v 0.070712 1.348728 -0.847130
v 0.039683 1.353590 -0.889449
v -0.002564 1.579728 -0.867591
v 0.000989 1.530224 -0.807744
v 0.000989 1.471864 -0.774531
v 0.000989 1.407089 -0.774531
v 0.000989 1.348728 -0.807744
v 0.000989 1.351169 -0.867591
v -0.002564 1.581322 -0.942219
v -0.065859 1.544113 -0.889449
v -0.068735 1.530224 -0.847130
v -0.085955 1.471864 -0.823646
v -0.085955 1.407089 -0.823646
v -0.068735 1.348728 -0.847130
v -0.037705 1.338475 -0.889449
v -0.062266 1.342269 -0.947798
v -0.087614 1.548683 -0.942219
v -0.096191 1.541837 -0.942219
v -0.092205 1.464234 -0.942219
v -0.095130 1.407088 -0.942219
v -0.044605 1.348728 -0.942219
v -0.056813 1.332100 -0.941312
v -0.055188 1.591634 -0.994322
v -0.102462 1.546868 -1.027330
v -0.120579 1.464234 -1.060791
v -0.120579 1.378101 -1.060791
v -0.097205 1.323884 -1.037307
v -0.020671 1.316508 -0.994989
v -0.002564 1.595540 -1.016847
v -0.002564 1.541837 -1.076694
v -0.002564 1.464234 -1.109906
v -0.002564 1.380233 -1.077046
v -0.002564 1.300497 -1.076694
v -0.002939 1.308341 -1.016847
vn 0.8601 -0.4300 0.2745
vn 0.0190 -0.9782 0.2070
vn 0.2267 -0.9434 0.2422
vn 0.0247 -0.7890 -0.6139
vn 0.0028 -0.2102 -0.9776
vn 0.7773 -0.3197 -0.5418
vn 0.6561 -0.7009 -0.2799
vn 0.0200 0.1547 -0.9878
vn 0.0678 0.6096 -0.7898
vn 0.7435 0.5575 -0.3693
vn 0.8153 0.1624 -0.5558
vn 0.1237 0.9282 -0.3509
vn -0.0732 0.9819 0.1745
vn 0.4879 0.8523 -0.1884
vn 0.1759 -0.9519 0.2508
vn 0.9314 -0.3371 0.1374
vn 0.6142 -0.7707 0.1699
vn 0.8646 0.5024 0.0077
vn 0.9896 0.1142 0.0874
vn 0.5827 0.8125 0.0145
vn 0.0218 -0.9949 0.0983
vn 0.7875 -0.2690 0.5545
vn 0.5312 -0.7953 0.2921
vn 0.6823 0.5740 0.4526
vn 0.7971 0.1536 0.5840
vn 0.3628 0.9019 0.2344
vn -0.0399 0.6307 0.7750
vn -0.0077 0.2214 0.9751
vn -0.1245 0.9346 0.3332
vn 0.0107 -0.7921 0.6103
vn 0.0682 -0.9977 0.0047
vn -0.0000 -0.2379 0.9713
vn -0.5987 -0.7492 0.2831
vn -0.1015 -0.9901 -0.0967
vn -0.8156 0.1684 0.5535
vn -0.8183 -0.2490 0.5180
vn -0.4641 0.8425 0.2735
vn -0.6912 0.5277 0.4937
vn -0.7904 -0.5924 0.1562
vn 0.9434 -0.3174 0.0965
vn -0.9870 0.0537 0.1514
vn -0.9609 -0.2205 0.1672
vn -0.5377 0.8100 0.2342
vn -0.8718 0.4529 0.1869
vn -0.3767 0.9245 -0.0579
vn -0.7818 0.5134 -0.3538
vn 0.4479 -0.5544 0.7014
vn -0.8242 -0.2959 -0.4829
vn -0.6739 -0.7088 -0.2086
vn -0.8487 0.0937 -0.5205
vt 0.625000 0.857143
vt 0.625000 0.714286
vt 0.625000 0.571429
vt 0.625000 0.428571
vt 0.625000 0.285714
vt 0.625000 0.142857
vt 0.500000 0.857143
vt 0.500000 0.714286
vt 0.500000 0.571429
vt 0.500000 0.428571
vt 0.500000 0.285714
vt 0.500000 0.142857
vt 0.375000 0.857143
vt 0.375000 0.714286
vt 0.375000 0.571429
vt 0.375000 0.428571
vt 0.375000 0.285714
vt 0.375000 0.142857
vt 0.250000 0.857143
vt 0.250000 0.714286
vt 0.250000 0.571429
vt 0.250000 0.428571
vt 0.250000 0.285714
vt 0.250000 0.142857
vt 0.687500 1.000000
vt 0.562500 1.000000
vt 0.437500 1.000000
vt 0.312500 1.000000
vt 0.187500 1.000000
vt 0.062500 1.000000
vt 0.937500 1.000000
vt 0.812500 1.000000
vt 0.125000 0.857143
vt 0.125000 0.714286
vt 0.125000 0.571429
vt 0.125000 0.428571
vt 0.125000 0.285714
vt 0.125000 0.142857
vt 0.687500 0.000000
vt 0.562500 0.000000
vt 0.437500 0.000000
vt 0.312500 0.000000
vt 0.187500 0.000000
vt 0.062500 0.000000
vt 0.937500 0.000000
vt 0.812500 0.000000
vt 0.000000 0.857143
vt 1.000000 0.857143
vt 0.000000 0.714286
vt 1.000000 0.714286
vt 0.000000 0.571429
vt 1.000000 0.571429
vt 0.000000 0.428571
vt 1.000000 0.428571
vt 0.000000 0.285714
vt 1.000000 0.285714
vt 0.000000 0.142857
vt 1.000000 0.142857
vt 0.875000 0.857143
vt 0.875000 0.714286
vt 0.875000 0.571429
vt 0.875000 0.428571
vt 0.875000 0.285714
vt 0.875000 0.142857
vt 0.750000 0.857143
vt 0.750000 0.714286
vt 0.750000 0.571429
vt 0.750000 0.428571
vt 0.750000 0.285714
vt 0.750000 0.142857
s 1
usemtl Material.003
f 58/91/25 76/122/26 32/58/27
f 75/121/28 74/120/29 30/56/30 31/57/31
f 73/119/32 72/118/33 28/54/34 29/55/35
f 71/117/36 51/77/37 27/53/38
f 76/122/26 75/121/28 31/57/31 32/58/27
f 74/120/29 73/119/32 29/55/35 30/56/30
f 72/118/33 71/117/36 27/53/38 28/54/34
f 58/92/25 32/58/27 38/64/39
f 31/57/31 30/56/30 36/62/40 37/63/41
f 29/55/35 28/54/34 34/60/42 35/61/43
f 27/53/38 51/78/37 33/59/44
f 32/58/27 31/57/31 37/63/41 38/64/39
f 30/56/30 29/55/35 35/61/43 36/62/40
f 28/54/34 27/53/38 33/59/44 34/60/42
f 58/93/25 38/64/39 44/70/45
f 37/63/41 36/62/40 42/68/46 43/69/47
f 35/61/43 34/60/42 40/66/48 41/67/49
f 33/59/44 51/79/37 39/65/50
f 38/64/39 37/63/41 43/69/47 44/70/45
f 36/62/40 35/61/43 41/67/49 42/68/46
f 34/60/42 33/59/44 39/65/50 40/66/48
f 41/67/49 40/66/48 46/72/51 47/73/52
f 39/65/50 51/80/37 45/71/53
f 44/70/45 43/69/47 49/75/54 50/76/55
f 42/68/46 41/67/49 47/73/52 48/74/56
f 40/66/48 39/65/50 45/71/53 46/72/51
f 58/94/25 44/70/45 50/76/55
f 43/69/47 42/68/46 48/74/56 49/75/54
f 50/76/55 49/75/54 56/89/57 57/90/58
f 48/74/56 47/73/52 54/87/59 55/88/60
f 46/72/51 45/71/53 52/85/61 53/86/62
f 58/95/25 50/76/55 57/90/58
f 49/75/54 48/74/56 55/88/60 56/89/57
f 47/73/52 46/72/51 53/86/62 54/87/59
f 45/71/53 51/81/37 52/85/61
f 57/90/58 56/89/57 63/107/63 64/109/64
f 55/88/60 54/87/59 61/103/65 62/105/66
f 53/86/62 52/85/61 59/99/67 60/101/68
f 58/96/25 57/90/58 64/109/64
f 56/89/57 55/88/60 62/105/66 63/107/63
f 54/87/59 53/86/62 60/101/68 61/103/65
f 52/85/61 51/82/37 59/99/67
f 60/102/68 59/100/67 65/111/69 66/112/70
f 58/97/25 64/110/64 70/116/71
f 63/108/63 62/106/66 68/114/72 69/115/73
f 61/104/65 60/102/68 66/112/70 67/113/74
f 59/100/67 51/83/37 65/111/69
f 64/110/64 63/108/63 69/115/73 70/116/71
f 62/106/66 61/104/65 67/113/74 68/114/72
f 58/98/25 70/116/71 76/122/26
f 69/115/73 68/114/72 74/120/29 75/121/28
f 67/113/74 66/112/70 72/118/33 73/119/32
f 65/111/69 51/84/37 71/117/36
f 70/116/71 69/115/73 75/121/28 76/122/26
f 68/114/72 67/113/74 73/119/32 74/120/29
f 66/112/70 65/111/69 71/117/36 72/118/33
