# Blender 3.4.1
# www.blender.org
mtllib Pan.mtl
o Cylinder
v 1.025952 0.268583 -0.990537
v 1.025952 0.619880 -0.990537
v 1.324152 0.268583 -0.947355
v 1.324152 0.619880 -0.947355
v 1.671054 0.268583 -0.835104
v 1.671054 0.619880 -0.835104
v 2.005567 0.268583 -0.639517
v 2.005567 0.619880 -0.639517
v 2.221622 0.268583 -0.325783
v 2.221622 0.619880 -0.325783
v 2.359499 0.268583 0.011732
v 2.359499 0.619880 0.011732
v 2.427593 0.268157 0.288030
v 2.418393 0.619841 0.288882
v 2.425946 0.268541 0.514120
v 2.426383 0.620367 0.514390
v 2.416720 0.269310 0.690035
v 2.429558 0.625154 0.691660
v 2.347311 0.269776 0.925911
v 2.353943 0.626486 0.927493
v 2.282000 0.268583 1.122282
v 2.282161 0.620054 1.122330
v 2.182560 0.268583 1.317020
v 2.182560 0.619880 1.317020
v 2.010779 0.268583 1.578799
v 2.010779 0.619880 1.578799
v 1.777817 0.268583 1.796659
v 1.777817 0.619880 1.796659
v 1.494495 0.268583 1.933606
v 1.494495 0.619880 1.933606
v 1.134003 0.268583 2.003162
v 1.134003 0.619880 2.003162
v 0.925902 0.275963 2.043253
v 0.925902 0.615204 2.043253
v 0.621777 0.279415 2.001562
v 0.621777 0.611753 2.001562
v 0.360746 0.268583 1.850616
v 0.360746 0.619880 1.850616
v 0.274988 0.268583 1.755736
v 0.274988 0.619880 1.755736
v 0.158910 0.268583 1.653092
v 0.158910 0.619880 1.653092
v 0.035713 0.261830 1.544922
v 0.035713 0.613127 1.544922
v -0.209564 0.268593 1.321157
v -0.209564 0.619890 1.321157
v -0.305956 0.265830 1.075632
v -0.305956 0.617127 1.075632
v -0.411721 0.253474 0.683803
v -0.411721 0.604771 0.683803
v -0.418320 0.249347 0.398752
v -0.418320 0.600644 0.398752
v -0.413372 0.285308 0.003564
v -0.413372 0.630204 0.003564
v -0.256181 0.262457 -0.313491
v -0.256181 0.613754 -0.313491
v -0.107586 0.258298 -0.556814
v -0.107586 0.609595 -0.556814
v 0.160971 0.256025 -0.808433
v 0.160971 0.616269 -0.808433
v 0.417970 0.239049 -0.919907
v 0.417970 0.613350 -0.919907
v 0.707420 0.268583 -0.974295
v 0.707420 0.619880 -0.974295
v 0.798416 0.349939 4.345165
v 0.798416 0.635408 4.345165
v 0.209121 0.349939 4.249635
v 0.225439 0.635408 4.246832
v -0.039235 0.619880 -0.508048
v 0.210214 0.619880 -0.743717
v 0.446199 0.619880 -0.848733
v 0.715784 0.619880 -0.898660
v 1.018334 0.619880 -0.922662
v 1.291094 0.619880 -0.887019
v 1.649098 0.619880 -0.771823
v 1.972537 0.619880 -0.587311
v 2.167945 0.619880 -0.320520
v 2.287079 0.619880 0.022538
v 2.377846 0.619847 0.291671
v 2.380477 0.624544 0.673163
v 2.280147 0.623223 0.999283
v 2.150799 0.619880 1.298934
v 1.979147 0.619880 1.541163
v 1.770243 0.619880 1.745277
v 1.514113 0.619880 1.858878
v 0.931069 0.619880 1.973032
v 0.647276 0.619880 1.921328
v 0.269169 0.619880 1.694286
v -0.160784 0.619880 1.283461
v -0.369472 0.619880 0.674773
v -0.355927 0.619880 0.022413
v -0.039235 0.270330 -0.508048
v 0.210214 0.270330 -0.743717
v 0.446199 0.270330 -0.848733
v 0.715784 0.270330 -0.898660
v 1.018334 0.270330 -0.922662
v 1.291094 0.270330 -0.887019
v 1.649098 0.270330 -0.771823
v 1.972537 0.270330 -0.587311
v 2.167945 0.270330 -0.320520
v 2.287079 0.270330 0.022538
v 2.377099 0.270328 0.291740
v 2.366990 0.270330 0.671483
v 2.277040 0.270330 0.998346
v 2.150799 0.270330 1.298934
v 1.979147 0.270330 1.541163
v 1.770243 0.270330 1.745277
v 1.514113 0.270330 1.858878
v 0.931069 0.270330 1.973032
v 0.635408 0.270330 1.889188
v 0.269169 0.270330 1.694286
v -0.160784 0.270330 1.283461
v -0.369472 0.270330 0.674773
v -0.355927 0.270330 0.022413
v -0.039235 0.259005 -0.508048
v 0.210214 0.259005 -0.743717
v 0.446199 0.259005 -0.848733
v 0.715784 0.259005 -0.898660
v 1.018334 0.259005 -0.922662
v 1.291094 0.259005 -0.887019
v 1.649098 0.259005 -0.771823
v 1.972537 0.259005 -0.587311
v 2.167945 0.259005 -0.320520
v 2.287079 0.259005 0.022538
v 2.386003 0.258628 0.290916
v 2.368065 0.259368 0.671615
v 2.277207 0.259186 0.998396
v 2.150799 0.259005 1.298934
v 1.979147 0.259005 1.541163
v 1.770243 0.259005 1.745277
v 1.514113 0.259005 1.858878
v 1.182527 0.259005 1.964603
v 0.775876 0.259005 1.951537
v 0.269169 0.259005 1.694286
v -0.160784 0.259005 1.283461
v -0.395730 0.259005 0.674773
v -0.355927 0.259005 0.022413
v 0.550106 0.611853 4.752215
v 0.539417 0.349939 4.791689
v 0.337285 0.349939 4.753333
v 0.346332 0.615882 4.718696
v 0.595172 0.449148 2.122491
v 0.905102 0.445222 2.186320
vn 0.1433 -0.0000 -0.9897
vn 0.3079 -0.0000 -0.9514
vn 0.5047 -0.0000 -0.8633
vn 0.8236 -0.0000 -0.5672
vn 0.9257 -0.0000 -0.3782
vn 0.9746 0.0130 -0.2236
vn 0.9998 0.0125 -0.0141
vn 0.9997 -0.0188 0.0174
vn 0.9555 -0.0274 0.2939
vn 0.9437 -0.0098 0.3305
vn 0.8904 -0.0002 0.4551
vn 0.8361 -0.0000 0.5486
vn 0.6830 -0.0000 0.7304
vn 0.4352 -0.0000 0.9003
vn 0.1895 -0.0000 0.9819
vn 0.1892 -0.0000 0.9819
vn 0.9980 -0.0279 0.0562
vn -0.5006 -0.0000 0.8657
vn -0.7419 -0.0000 0.6705
vn -0.6624 -0.0000 0.7491
vn -0.6598 -0.0000 0.7515
vn -0.6740 -0.0000 0.7388
vn -0.9308 -0.0000 0.3654
vn -0.9654 -0.0000 0.2606
vn -0.9997 -0.0000 0.0231
vn -0.9999 -0.0000 -0.0125
vn -0.8959 -0.0000 -0.4442
vn -0.8534 -0.0000 -0.5212
vn -0.6837 -0.0000 -0.7297
vn -0.3979 -0.0000 -0.9174
vn -0.0115 0.9998 -0.0191
vn -0.1847 -0.0000 -0.9828
vn -0.0509 -0.0000 -0.9987
vn 0.0023 -1.0000 0.0023
vn -0.0000 -1.0000 -0.0000
vn -0.9833 0.0440 -0.1768
vn -0.1400 -0.6205 0.7716
vn -0.0024 0.9999 -0.0099
vn -0.1712 0.1433 0.9748
vn 0.8592 0.0201 0.5112
vn -0.9668 0.0613 0.2480
vn -0.6989 -0.0000 -0.7153
vn -0.0469 0.9986 0.0235
vn 0.1821 -0.0000 0.9833
vn 0.2276 0.0409 -0.9729
vn -0.9997 0.0202 -0.0099
vn 0.0791 -0.0000 0.9969
vn 0.4929 0.0316 -0.8695
vn -0.9598 0.0236 -0.2796
vn -0.1296 -0.0000 0.9916
vn 0.6908 -0.0000 -0.7230
vn -0.9201 0.0046 -0.3917
vn -0.3063 -0.0000 0.9519
vn 0.9459 -0.0000 -0.3243
vn -0.8159 -0.0000 -0.5782
vn -0.4955 -0.0000 0.8686
vn 0.9998 -0.0000 0.0208
vn -0.8067 -0.0000 0.5909
vn 0.8586 -0.0000 0.5126
vn 0.6867 -0.0000 0.7269
vn -0.4054 -0.0000 -0.9141
vn -0.9447 -0.0000 0.3281
vn 0.4066 -0.0000 0.9136
vn -0.1921 -0.0000 -0.9814
vn -0.9480 0.0010 0.3184
vn -0.0000 1.0000 -0.0000
vn -0.8068 -0.0000 0.5909
vn -0.0955 -0.9127 -0.3974
vn -0.8829 -0.3525 0.3101
vn 0.1367 0.0070 -0.9906
vn -0.9151 -0.4019 -0.0334
vn 0.4258 0.3778 -0.8221
vn -0.9623 -0.0563 -0.2662
vn -0.9219 -0.0078 -0.3875
vn 0.6354 -0.7367 -0.2315
vn 0.6529 -0.7570 0.0267
vn -0.0031 0.9988 0.0485
vn 0.0036 -0.9990 -0.0449
vt 1.000000 0.500000
vt 0.000000 0.500000
vt 0.750000 0.490000
vt 1.000000 1.000000
vt 0.250000 0.490000
vt 0.000000 1.000000
vt 0.968750 0.500000
vt 0.796822 0.485388
vt 0.968750 1.000000
vt 0.296822 0.485388
vt 0.937500 0.500000
vt 0.841844 0.471731
vt 0.937500 1.000000
vt 0.341844 0.471731
vt 0.906250 0.500000
vt 0.883337 0.449553
vt 0.906250 1.000000
vt 0.383337 0.449553
vt 0.875000 0.500000
vt 0.919706 0.419706
vt 0.875000 1.000000
vt 0.419706 0.419706
vt 0.843750 0.500000
vt 0.949553 0.383337
vt 0.843750 1.000000
vt 0.449553 0.383337
vt 0.812500 0.500000
vt 0.971731 0.341844
vt 0.812500 1.000000
vt 0.471731 0.341844
vt 0.781250 0.500000
vt 0.985388 0.296822
vt 0.781250 1.000000
vt 0.485388 0.296822
vt 0.750000 0.500000
vt 0.990000 0.250000
vt 0.750000 1.000000
vt 0.490000 0.250000
vt 0.718750 0.500000
vt 0.985388 0.203178
vt 0.718750 1.000000
vt 0.485388 0.203178
vt 0.687500 0.500000
vt 0.971731 0.158156
vt 0.687500 1.000000
vt 0.471731 0.158156
vt 0.656250 0.500000
vt 0.949553 0.116663
vt 0.656250 1.000000
vt 0.449553 0.116663
vt 0.625000 0.500000
vt 0.919706 0.080294
vt 0.625000 1.000000
vt 0.419706 0.080294
vt 0.593750 0.500000
vt 0.883337 0.050447
vt 0.593750 1.000000
vt 0.383337 0.050447
vt 0.562500 0.500000
vt 0.841844 0.028269
vt 0.562500 1.000000
vt 0.341844 0.028269
vt 0.531250 0.500000
vt 0.796822 0.014612
vt 0.531250 1.000000
vt 0.296822 0.014612
vt 0.500000 0.500000
vt 0.750000 0.010000
vt 0.500000 1.000000
vt 0.250000 0.010000
vt 0.468750 0.500000
vt 0.703178 0.014612
vt 0.468750 1.000000
vt 0.203178 0.014612
vt 0.437500 0.500000
vt 0.658156 0.028269
vt 0.437500 1.000000
vt 0.158156 0.028269
vt 0.406250 0.500000
vt 0.616663 0.050447
vt 0.406250 1.000000
vt 0.116663 0.050447
vt 0.375000 0.500000
vt 0.580294 0.080294
vt 0.375000 1.000000
vt 0.080294 0.080294
vt 0.343750 0.500000
vt 0.550447 0.116663
vt 0.343750 1.000000
vt 0.050447 0.116663
vt 0.312500 0.500000
vt 0.528269 0.158156
vt 0.312500 1.000000
vt 0.028269 0.158156
vt 0.281250 0.500000
vt 0.514612 0.203178
vt 0.281250 1.000000
vt 0.014612 0.203178
vt 0.250000 0.500000
vt 0.510000 0.250000
vt 0.250000 1.000000
vt 0.010000 0.250000
vt 0.218750 0.500000
vt 0.514612 0.296822
vt 0.218750 1.000000
vt 0.014612 0.296822
vt 0.187500 0.500000
vt 0.528269 0.341844
vt 0.187500 1.000000
vt 0.028269 0.341844
vt 0.156250 0.500000
vt 0.550447 0.383337
vt 0.156250 1.000000
vt 0.050447 0.383337
vt 0.125000 0.500000
vt 0.580294 0.419706
vt 0.125000 1.000000
vt 0.080294 0.419706
vt 0.093750 0.500000
vt 0.616663 0.449553
vt 0.093750 1.000000
vt 0.116663 0.449553
vt 0.062500 0.500000
vt 0.658156 0.471731
vt 0.158156 0.471731
vt 0.062500 1.000000
vt 0.031250 0.500000
vt 0.703178 0.485388
vt 0.203178 0.485388
vt 0.031250 1.000000
vt 0.500000 0.500000
vt 0.750000 0.010000
vt 0.500000 1.000000
vt 0.250000 0.010000
vt 0.468750 0.500000
vt 0.703178 0.014612
vt 0.468750 1.000000
vt 0.203178 0.014612
vt 0.106285 0.386508
vt 0.142113 0.419517
vt 0.176008 0.434226
vt 0.214728 0.441219
vt 0.258183 0.444581
vt 0.297360 0.439589
vt 0.348780 0.423454
vt 0.395235 0.397610
vt 0.423301 0.360242
vt 0.440412 0.312192
vt 0.453335 0.274486
vt 0.451889 0.221298
vt 0.438969 0.175517
vt 0.420836 0.133416
vt 0.396179 0.099490
vt 0.366168 0.070904
vt 0.329347 0.055016
vt 0.281404 0.047130
vt 0.223548 0.049670
vt 0.150679 0.077969
vt 0.088836 0.135573
vt 0.055084 0.220835
vt 0.060799 0.312208
vt 0.106285 0.386508
vt 0.142113 0.419517
vt 0.176008 0.434226
vt 0.214728 0.441219
vt 0.258183 0.444581
vt 0.297360 0.439589
vt 0.348780 0.423454
vt 0.395235 0.397610
vt 0.423301 0.360242
vt 0.440412 0.312192
vt 0.453335 0.274486
vt 0.451889 0.221298
vt 0.438969 0.175517
vt 0.420836 0.133416
vt 0.396179 0.099490
vt 0.366168 0.070904
vt 0.329347 0.055016
vt 0.281404 0.047130
vt 0.223548 0.049670
vt 0.150679 0.077969
vt 0.088836 0.135573
vt 0.055084 0.220835
vt 0.060799 0.312208
vt 0.106285 0.386508
vt 0.142113 0.419517
vt 0.176008 0.434226
vt 0.214728 0.441219
vt 0.258183 0.444581
vt 0.297360 0.439589
vt 0.348780 0.423454
vt 0.395235 0.397610
vt 0.423301 0.360242
vt 0.440412 0.312192
vt 0.453335 0.274486
vt 0.451889 0.221298
vt 0.438969 0.175517
vt 0.420836 0.133416
vt 0.396179 0.099490
vt 0.366168 0.070904
vt 0.329347 0.055016
vt 0.281404 0.047130
vt 0.223548 0.049670
vt 0.150679 0.077969
vt 0.088836 0.135573
vt 0.055084 0.220835
vt 0.060799 0.312208
vt 0.500000 1.000000
vt 0.250000 0.010000
vt 0.750000 0.010000
vt 0.500000 0.500000
vt 0.703178 0.014612
vt 0.468750 0.500000
vt 0.468750 1.000000
vt 0.203178 0.014612
vt 0.468750 0.500000
vt 0.703178 0.014612
vt 0.500000 0.500000
vt 0.750000 0.010000
s 0
usemtl Material.001
f 1/1/1 2/4/1 4/9/1 3/7/1
f 3/7/2 4/9/2 6/13/2 5/11/2
f 5/11/3 6/13/3 8/17/3 7/15/3
f 7/15/4 8/17/4 10/21/4 9/19/4
f 9/19/5 10/21/5 12/25/5 11/23/5
f 11/23/6 12/25/6 14/29/6 13/27/6
f 13/27/7 14/29/7 16/33/7 15/31/7
f 15/31/8 16/33/8 18/37/8 17/35/8
f 17/35/9 18/37/9 20/41/9 19/39/9
f 19/39/10 20/41/10 22/45/10 21/43/10
f 21/43/11 22/45/11 24/49/11 23/47/11
f 23/47/12 24/49/12 26/53/12 25/51/12
f 25/51/13 26/53/13 28/57/13 27/55/13
f 27/55/14 28/57/14 30/61/14 29/59/14
f 29/59/15 30/61/15 32/65/15 31/63/15
f 31/63/16 32/65/16 34/69/16 33/67/16
f 33/67/17 34/69/17 66/133/17 65/131/17 143/218/17
f 35/71/18 36/73/18 38/77/18 37/75/18
f 37/75/19 38/77/19 40/81/19 39/79/19
f 39/79/20 40/81/20 42/85/20 41/83/20
f 41/83/21 42/85/21 44/89/21 43/87/21
f 43/87/22 44/89/22 46/93/22 45/91/22
f 45/91/23 46/93/23 48/97/23 47/95/23
f 47/95/24 48/97/24 50/101/24 49/99/24
f 49/99/25 50/101/25 52/105/25 51/103/25
f 51/103/26 52/105/26 54/109/26 53/107/26
f 53/107/27 54/109/27 56/113/27 55/111/27
f 55/111/28 56/113/28 58/117/28 57/115/28
f 57/115/29 58/117/29 60/121/29 59/119/29
f 59/119/30 60/121/30 62/126/30 61/123/30
f 4/10/31 2/5/31 64/129/31 62/125/31 60/122/31 58/118/31 56/114/31 54/110/31 91/161/31 69/139/31 70/140/31 71/141/31 72/142/31 73/143/31 74/144/31 75/145/31 76/146/31 77/147/31 78/148/31 79/149/31 80/150/31 20/42/31 18/38/31 16/34/31 14/30/31 12/26/31 10/22/31 8/18/31 6/14/31
f 61/123/32 62/126/32 64/130/32 63/127/32
f 63/127/33 64/130/33 2/6/33 1/2/33
f 1/3/34 3/8/34 5/12/34 7/16/34 9/20/34 11/24/34 13/28/34 15/32/34 17/36/34 19/40/34 21/44/34 23/48/34 25/52/34 27/56/34 29/60/34 31/64/34 33/68/34 35/72/34 37/76/34 39/80/34 41/84/34 43/88/34 45/92/34 47/96/34 49/100/34 51/104/34 53/108/34 55/112/34 57/116/34 59/120/34 61/124/34 63/128/34
f 140/212/35 67/136/35 65/132/35 139/210/35
f 36/73/36 35/71/36 142/216/36 67/135/36 68/137/36
f 35/72/37 33/68/37 143/219/37 142/217/37
f 34/70/38 36/74/38 68/138/38 66/134/38
f 140/213/39 139/211/39 138/208/39 141/214/39
f 65/131/40 66/133/40 138/208/40 139/211/40
f 68/137/41 67/135/41 140/213/41 141/214/41
f 107/177/42 106/176/42 129/199/42 130/200/42
f 20/42/43 80/150/43 81/151/43 82/152/43 83/153/43 84/154/43 85/155/43 86/156/43 87/157/43 88/158/43 89/159/43 90/160/43 91/161/43 54/110/43 52/106/43 50/102/43 48/98/43 46/94/43 44/90/43 42/86/43 40/82/43 38/78/43 36/74/43 34/70/43 32/66/43 30/62/43 28/58/43 26/54/43 24/50/43 22/46/43
f 72/142/44 71/141/44 94/164/44 95/165/44
f 87/157/45 86/156/45 109/179/45 110/180/45
f 80/150/46 79/149/46 102/172/46 103/173/46
f 73/143/47 72/142/47 95/165/47 96/166/47
f 88/158/48 87/157/48 110/180/48 111/181/48
f 81/151/49 80/150/49 103/173/49 104/174/49
f 74/144/50 73/143/50 96/166/50 97/167/50
f 89/159/51 88/158/51 111/181/51 112/182/51
f 82/152/52 81/151/52 104/174/52 105/175/52
f 75/145/53 74/144/53 97/167/53 98/168/53
f 90/160/54 89/159/54 112/182/54 113/183/54
f 83/153/55 82/152/55 105/175/55 106/176/55
f 76/146/56 75/145/56 98/168/56 99/169/56
f 91/161/57 90/160/57 113/183/57 114/184/57
f 84/154/42 83/153/42 106/176/42 107/177/42
f 77/147/58 76/146/58 99/169/58 100/170/58
f 69/139/59 91/161/59 114/184/59 92/162/59
f 70/140/60 69/139/60 92/162/60 93/163/60
f 85/155/61 84/154/61 107/177/61 108/178/61
f 78/148/62 77/147/62 100/170/62 101/171/62
f 71/141/63 70/140/63 93/163/63 94/164/63
f 86/156/64 85/155/64 108/178/64 109/179/64
f 79/149/65 78/148/65 101/171/65 102/172/65
f 136/206/66 135/205/66 134/204/66 133/203/66 132/202/66 131/201/66 130/200/66 129/199/66 128/198/66 127/197/66 126/196/66 125/195/66 124/194/66 123/193/66 122/192/66 121/191/66 120/190/66 119/189/66 118/188/66 117/187/66 116/186/66 115/185/66 137/207/66
f 100/170/67 99/169/67 122/192/67 123/193/67
f 92/162/59 114/184/59 137/207/59 115/185/59
f 93/163/60 92/162/60 115/185/60 116/186/60
f 108/178/61 107/177/61 130/200/61 131/201/61
f 101/171/62 100/170/62 123/193/62 124/194/62
f 94/164/63 93/163/63 116/186/63 117/187/63
f 109/179/68 108/178/68 131/201/68 132/202/68
f 102/172/69 101/171/69 124/194/69 125/195/69
f 95/165/44 94/164/44 117/187/44 118/188/44
f 110/180/70 109/179/70 132/202/70 133/203/70
f 103/173/71 102/172/71 125/195/71 126/196/71
f 96/166/47 95/165/47 118/188/47 119/189/47
f 111/181/72 110/180/72 133/203/72 134/204/72
f 104/174/73 103/173/73 126/196/73 127/197/73
f 97/167/50 96/166/50 119/189/50 120/190/50
f 112/182/51 111/181/51 134/204/51 135/205/51
f 105/175/74 104/174/74 127/197/74 128/198/74
f 98/168/53 97/167/53 120/190/53 121/191/53
f 113/183/75 112/182/75 135/205/75 136/206/75
f 106/176/55 105/175/55 128/198/55 129/199/55
f 99/169/56 98/168/56 121/191/56 122/192/56
f 114/184/76 113/183/76 136/206/76 137/207/76
f 66/134/77 68/138/77 141/215/77 138/209/77
f 142/217/78 143/219/78 65/132/78 67/136/78
